HIERARCHY
ROOT joint_Root
{
	OFFSET 0.0 0.0 0.0
	CHANNELS 6 Xposition Yposition Zposition Zrotation Xrotation Yrotation 
	JOINT Hips
	{
		OFFSET 4.5925 91.4895 -427.239
		CHANNELS 6 Xposition Yposition Zposition Zrotation Xrotation Yrotation 
		JOINT Spine
		{
			OFFSET 15.7357 0.0 0.0
			CHANNELS 6 Xposition Yposition Zposition Zrotation Xrotation Yrotation 
			JOINT Chest
			{
				OFFSET 8.98455 -0.406207 0.0
				CHANNELS 6 Xposition Yposition Zposition Zrotation Xrotation Yrotation 
				JOINT Neck
				{
					OFFSET 16.3773 0.0 0.0
					CHANNELS 6 Xposition Yposition Zposition Zrotation Xrotation Yrotation 
					JOINT Head
					{
						OFFSET 6.45672 0.0 0.0
						CHANNELS 6 Xposition Yposition Zposition Zrotation Xrotation Yrotation 
						End Site
						{
							OFFSET 0.0 0.0 0.0
						}
					}
				}
				JOINT Shoulder_L
				{
					OFFSET 12.9942 -0.242716 4.98039
					CHANNELS 6 Xposition Yposition Zposition Zrotation Xrotation Yrotation 
					JOINT UpperArm_L
					{
						OFFSET 5.34809 0.0 0.0
						CHANNELS 6 Xposition Yposition Zposition Zrotation Xrotation Yrotation 
						JOINT LowerArm_L
						{
							OFFSET 24.3286 1.87007e-05 0.0
							CHANNELS 6 Xposition Yposition Zposition Zrotation Xrotation Yrotation 
							JOINT Hand_L
							{
								OFFSET 22.2916 0.0 0.0
								CHANNELS 6 Xposition Yposition Zposition Zrotation Xrotation Yrotation 
								End Site
								{
									OFFSET 0.0 0.0 0.0
								}
							}
						}
					}
				}
				JOINT Shoulder_R
				{
					OFFSET 12.9945 -0.242716 -4.98039
					CHANNELS 6 Xposition Yposition Zposition Zrotation Xrotation Yrotation 
					JOINT UpperArm_R
					{
						OFFSET -5.34813 0.0 0.0
						CHANNELS 6 Xposition Yposition Zposition Zrotation Xrotation Yrotation 
						JOINT LowerArm_R
						{
							OFFSET -24.3289 0.000322201 0.0
							CHANNELS 6 Xposition Yposition Zposition Zrotation Xrotation Yrotation 
							JOINT Hand_R
							{
								OFFSET -22.2915 -0.000108084 0.0
								CHANNELS 6 Xposition Yposition Zposition Zrotation Xrotation Yrotation 
								End Site
								{
									OFFSET 0.0 0.0 0.0
								}
							}
						}
					}
				}
			}
		}
		JOINT UpperLeg_L
		{
			OFFSET -2.19248 -6.46944 0.0
			CHANNELS 6 Xposition Yposition Zposition Zrotation Xrotation Yrotation 
			JOINT LowerLeg_L
			{
				OFFSET 39.0811 0.0 -1.23785e-05
				CHANNELS 6 Xposition Yposition Zposition Zrotation Xrotation Yrotation 
				JOINT Foot_L
				{
					OFFSET 40.9854 0.0 -1.26872e-05
					CHANNELS 6 Xposition Yposition Zposition Zrotation Xrotation Yrotation 
					JOINT Toes_L
					{
						OFFSET 11.7543 0.0 0.0
						CHANNELS 6 Xposition Yposition Zposition Zrotation Xrotation Yrotation 
						End Site
						{
							OFFSET 0.0 0.0 0.0
						}
					}
				}
			}
		}
		JOINT UpperLeg_R
		{
			OFFSET -2.19251 6.46944 0.0
			CHANNELS 6 Xposition Yposition Zposition Zrotation Xrotation Yrotation 
			JOINT LowerLeg_R
			{
				OFFSET -39.0811 -0.00228153 -0.0401928
				CHANNELS 6 Xposition Yposition Zposition Zrotation Xrotation Yrotation 
				JOINT Foot_R
				{
					OFFSET -40.9854 0.0 0.0
					CHANNELS 6 Xposition Yposition Zposition Zrotation Xrotation Yrotation 
					JOINT Toes_R
					{
						OFFSET -11.7543 0.0 0.0
						CHANNELS 6 Xposition Yposition Zposition Zrotation Xrotation Yrotation 
						End Site
						{
							OFFSET 0.0 0.0 0.0
						}
					}
				}
			}
		}
	}
}
MOTION
Frames:	6
Frame Time:	0.0333333
0.000000 0.000000 0.000000 0.000000 0.000000 -0.000000 0.695898 84.719800 0.023108 88.538200 -4.309590 12.381700 15.735700 0.000005 -0.000001 88.126400 79.868300 -87.665400 8.984550 -0.406207 -0.000000 12.489900 -0.637351 0.991608 16.377300 -0.000001 -0.000001 -3.330480 -2.808050 1.021830 6.456720 -0.000001 -0.000000 -10.907700 -1.589390 -0.090175 12.994200 -0.242716 4.980390 -90.609700 1.588220 -68.994000 5.348090 -0.000007 -0.000001 -67.988300 5.040140 -2.332870 24.328600 0.000019 0.000005 4.920250 17.020400 -16.394300 22.291600 -0.000001 0.000005 11.396000 5.071610 5.767380 12.994500 -0.242716 -4.980390 88.275500 6.770120 -75.672100 -5.348130 -0.000001 -0.000004 -62.128200 0.674003 -8.422040 -24.328900 0.000322 -0.000009 -1.313560 -9.289770 -8.041340 -22.291500 -0.000108 -0.000004 4.960790 5.226730 2.124060 -2.192480 -6.469440 -0.000000 -173.661000 -12.653800 -9.060010 39.081100 -0.000007 -0.000012 -0.425603 0.299905 54.830200 40.985400 -0.000006 -0.000013 1.631020 4.000780 -83.087500 11.754300 -0.000000 0.000003 -0.000402 -0.003321 -16.700000 -2.192510 6.469440 -0.000001 175.699000 14.004500 170.341000 -39.081100 -0.002282 -0.040193 0.064793 -0.043547 54.727100 -40.985400 0.000008 0.000006 4.427650 4.713120 -81.647300 -11.754300 -0.000006 -0.000006 -0.563090 -0.691713 -17.032500
0.000000 0.000000 0.000000 0.000000 0.000000 -0.000000 0.606806 86.757900 0.573713 88.808900 -3.307240 11.683600 15.735700 0.000005 -0.000001 87.564300 80.869900 -87.303300 8.984550 -0.406207 -0.000000 10.480100 -0.764554 0.591788 16.377300 -0.000001 -0.000001 -1.950680 -2.848590 0.950484 6.456720 -0.000001 -0.000000 -9.905790 -1.736330 -0.136275 12.994200 -0.242716 4.980390 -89.924600 -0.191334 -68.520500 5.348090 -0.000007 -0.000001 -63.711700 -5.961360 -4.021370 24.328600 0.000019 0.000005 5.347840 18.982400 -16.055400 22.291600 -0.000001 0.000005 11.561700 5.021260 6.861620 12.994500 -0.242716 -4.980390 88.700800 4.798620 -74.827900 -5.348130 -0.000001 -0.000004 -58.256500 -9.275710 -9.768460 -24.328900 0.000322 -0.000009 -0.128723 -1.807040 -3.989130 -22.291500 -0.000108 -0.000004 -1.880610 5.080110 5.604760 -2.192480 -6.469440 -0.000000 -174.216000 -11.861800 -6.146790 39.081100 -0.000007 -0.000012 -0.360473 0.325746 47.897900 40.985400 -0.000006 -0.000013 1.378430 4.283890 -79.877600 11.754300 -0.000000 0.000003 -0.000355 -0.002992 -16.688400 -2.192510 6.469440 -0.000001 175.500000 14.528500 173.402000 -39.081100 -0.002282 -0.040193 0.050678 -0.042561 48.093500 -40.985400 0.000008 0.000006 4.084300 4.613320 -78.504000 -11.754300 -0.000006 -0.000006 -0.537473 -0.659984 -17.307000
0.000000 0.000000 0.000000 0.000000 0.000000 -0.000000 0.556644 88.878000 0.884709 89.010500 -2.177470 9.577390 15.735700 0.000005 -0.000001 86.899500 82.722900 -86.845200 8.984550 -0.406207 -0.000000 6.767670 -0.785117 0.154835 16.377300 -0.000001 -0.000001 1.228290 -2.989350 0.954537 6.456720 -0.000001 -0.000000 -8.238350 -2.181590 0.016579 12.994200 -0.242716 4.980390 -89.227900 -1.882440 -67.698100 5.348090 -0.000007 -0.000001 -56.585800 -16.398400 -9.283370 24.328600 0.000019 0.000005 5.088910 15.365200 -18.584400 22.291600 -0.000001 0.000005 14.344400 5.006960 7.173290 12.994500 -0.242716 -4.980390 89.185600 2.787680 -73.702400 -5.348130 -0.000001 -0.000004 -51.327000 -19.590100 -13.768000 -24.328900 0.000322 -0.000009 -0.034088 -0.996164 -1.914140 -22.291500 -0.000108 -0.000004 -2.040700 5.022110 6.848630 -2.192480 -6.469440 -0.000000 -175.222000 -10.479800 -4.306550 39.081100 -0.000007 -0.000012 -0.273448 0.329112 39.722600 40.985400 -0.000006 -0.000013 0.895534 3.991130 -75.809600 11.754300 -0.000000 0.000003 -0.000250 -0.002232 -16.661200 -2.192510 6.469440 -0.000001 175.833000 15.171300 175.335000 -39.081100 -0.002282 -0.040193 0.037241 -0.039992 40.339800 -40.985400 0.000008 0.000006 3.821340 4.415280 -74.434200 -11.754300 -0.000006 -0.000006 -0.396371 -0.491955 -17.819500
0.000000 0.000000 0.000000 0.000000 0.000000 -0.000000 0.525418 90.349800 0.871625 89.149300 -1.303290 6.687430 15.735700 0.000005 -0.000001 85.534100 84.872400 -85.606800 8.984550 -0.406207 -0.000000 2.457750 -0.794523 -0.128263 16.377300 -0.000001 -0.000001 4.914120 -3.034960 0.818132 6.456720 -0.000001 -0.000000 -6.208770 -2.513440 0.163846 12.994200 -0.242716 4.980390 -88.752400 -2.966630 -67.177900 5.348090 -0.000007 -0.000001 -48.936300 -26.496400 -18.459300 24.328600 0.000019 0.000005 3.742100 8.880300 -22.990500 22.291600 -0.000001 0.000005 16.663800 5.063170 5.958210 12.994500 -0.242716 -4.980390 89.650000 1.142430 -72.961900 -5.348130 -0.000001 -0.000004 -43.584600 -31.073900 -21.197100 -24.328900 0.000322 -0.000009 -0.308322 -4.469730 -3.871160 -22.291500 -0.000108 -0.000004 2.503710 5.087500 5.455830 -2.192480 -6.469440 -0.000000 -176.197000 -9.256740 -4.185870 39.081100 -0.000007 -0.000012 -0.205702 0.315543 33.100700 40.985400 -0.000006 -0.000013 0.514797 3.525120 -72.325900 11.754300 -0.000000 0.000003 -0.000155 -0.001490 -16.634100 -2.192510 6.469440 -0.000001 176.358000 16.534700 175.605000 -39.081100 -0.002282 -0.040193 0.027547 -0.036069 33.917200 -40.985400 0.000008 0.000006 3.796150 5.005150 -71.231000 -11.754300 -0.000006 -0.000006 -0.184056 -0.244888 -18.002800
0.000000 0.000000 0.000000 0.000000 0.000000 -0.000000 0.511194 91.045700 0.844129 89.166200 -0.654593 5.016390 15.735700 0.000005 -0.000001 82.380400 86.177300 -82.459600 8.984550 -0.406207 -0.000000 -0.188837 -1.008000 -0.159963 16.377300 -0.000001 -0.000001 6.870590 -2.967990 0.503432 6.456720 -0.000001 -0.000000 -4.281820 -2.581570 0.229543 12.994200 -0.242716 4.980390 -88.457600 -3.720650 -67.462800 5.348090 -0.000007 -0.000001 -40.863700 -35.493300 -28.455700 24.328600 0.000019 0.000005 2.698100 4.452190 -31.323300 22.291600 -0.000001 0.000005 20.844700 5.224590 2.178160 12.994500 -0.242716 -4.980390 90.196400 -0.651499 -73.207400 -5.348130 -0.000001 -0.000004 -39.245300 -43.552900 -31.285300 -24.328900 0.000322 -0.000009 -4.681270 -17.853900 -14.844100 -22.291500 -0.000108 -0.000004 8.864220 5.404640 -2.833730 -2.192480 -6.469440 -0.000000 -176.564000 -8.762890 -4.249050 39.081100 -0.000007 -0.000012 -0.171673 0.303047 29.531300 40.985400 -0.000006 -0.000013 0.432991 3.649230 -70.424000 11.754300 -0.000000 0.000003 -0.000144 -0.001404 -16.631000 -2.192510 6.469440 -0.000001 176.362000 19.151800 176.188000 -39.081100 -0.002282 -0.040193 0.019533 -0.028367 29.777100 -40.985400 0.000008 0.000006 4.015340 7.065530 -69.984800 -11.754300 -0.000006 -0.000006 -0.002391 -0.033509 -17.935700
0.000000 0.000000 0.000000 0.000000 0.000000 -0.000000 0.451382 91.261200 0.783652 89.190000 -0.542012 4.792450 15.735700 0.000005 -0.000001 80.766800 86.530000 -80.860300 8.984550 -0.406207 -0.000000 -0.916812 -1.106230 -0.195893 16.377300 -0.000001 -0.000001 6.455890 -2.919600 0.733141 6.456720 -0.000001 -0.000000 -2.942010 -2.501170 -0.101873 12.994200 -0.242716 4.980390 -87.683900 -5.580960 -67.421000 5.348090 -0.000007 -0.000001 -33.073400 -43.898100 -36.447300 24.328600 0.000019 0.000005 3.643690 3.843030 -43.481000 22.291600 -0.000001 0.000005 26.534400 5.344760 -1.155050 12.994500 -0.242716 -4.980390 90.990100 -3.270210 -73.149100 -5.348130 -0.000001 -0.000004 -33.272400 -49.936600 -38.446900 -24.328900 0.000322 -0.000009 -13.940100 -20.129800 -35.881600 -22.291500 -0.000108 -0.000004 16.873400 5.606680 -11.451600 -2.192480 -6.469440 -0.000000 -176.482000 -9.244990 -3.919020 39.081100 -0.000007 -0.000012 -0.155075 0.287690 28.326400 40.985400 -0.000006 -0.000013 0.504405 4.304980 -69.763200 11.754300 -0.000000 0.000003 -0.000148 -0.001437 -16.632200 -2.192510 6.469440 -0.000001 175.974000 21.305500 177.294000 -39.081100 -0.002282 -0.040193 0.009394 -0.011630 27.627100 -40.985400 0.000008 0.000006 4.233270 9.155040 -70.058100 -11.754300 -0.000006 -0.000006 -0.002145 -0.030513 -17.813900
